<mxfile host="app.diagrams.net" modified="2022-04-26T01:35:43.331Z" agent="5.0 (Windows NT 10.0; Win64; x64) AppleWebKit/537.36 (KHTML, like Gecko) Chrome/95.0.4638.54 Safari/537.36" etag="s0ksjOt4a4q3PQlsby9N" version="17.4.6" type="github">
  <diagram id="C5RBs43oDa-KdzZeNtuy" name="Page-1">
    <mxGraphModel dx="2249" dy="-463" grid="1" gridSize="10" guides="1" tooltips="1" connect="1" arrows="1" fold="1" page="1" pageScale="1" pageWidth="827" pageHeight="1169" math="0" shadow="0">
      <root>
        <mxCell id="WIyWlLk6GJQsqaUBKTNV-0" />
        <mxCell id="WIyWlLk6GJQsqaUBKTNV-1" parent="WIyWlLk6GJQsqaUBKTNV-0" />
        <mxCell id="cUeOkRCtns4vJU1SYD9Y-5" value="" style="edgeStyle=orthogonalEdgeStyle;rounded=0;orthogonalLoop=1;jettySize=auto;html=1;" parent="WIyWlLk6GJQsqaUBKTNV-1" source="cUeOkRCtns4vJU1SYD9Y-7" target="cUeOkRCtns4vJU1SYD9Y-17" edge="1">
          <mxGeometry relative="1" as="geometry" />
        </mxCell>
        <mxCell id="cUeOkRCtns4vJU1SYD9Y-6" value="" style="edgeStyle=orthogonalEdgeStyle;rounded=0;orthogonalLoop=1;jettySize=auto;html=1;" parent="WIyWlLk6GJQsqaUBKTNV-1" source="cUeOkRCtns4vJU1SYD9Y-7" target="cUeOkRCtns4vJU1SYD9Y-18" edge="1">
          <mxGeometry relative="1" as="geometry" />
        </mxCell>
        <mxCell id="cUeOkRCtns4vJU1SYD9Y-7" value="被告人：被共监继" style="rounded=0;whiteSpace=wrap;html=1;fillColor=#ffe6cc;strokeColor=#d79b00;" parent="WIyWlLk6GJQsqaUBKTNV-1" vertex="1">
          <mxGeometry x="-280" y="1428" width="110" height="30" as="geometry" />
        </mxCell>
        <mxCell id="cUeOkRCtns4vJU1SYD9Y-8" value="" style="edgeStyle=orthogonalEdgeStyle;rounded=0;orthogonalLoop=1;jettySize=auto;html=1;" parent="WIyWlLk6GJQsqaUBKTNV-1" source="cUeOkRCtns4vJU1SYD9Y-11" target="cUeOkRCtns4vJU1SYD9Y-13" edge="1">
          <mxGeometry relative="1" as="geometry" />
        </mxCell>
        <mxCell id="cUeOkRCtns4vJU1SYD9Y-9" value="" style="edgeStyle=orthogonalEdgeStyle;rounded=0;orthogonalLoop=1;jettySize=auto;html=1;" parent="WIyWlLk6GJQsqaUBKTNV-1" source="cUeOkRCtns4vJU1SYD9Y-11" target="cUeOkRCtns4vJU1SYD9Y-14" edge="1">
          <mxGeometry relative="1" as="geometry" />
        </mxCell>
        <mxCell id="cUeOkRCtns4vJU1SYD9Y-10" value="" style="edgeStyle=orthogonalEdgeStyle;rounded=0;orthogonalLoop=1;jettySize=auto;html=1;" parent="WIyWlLk6GJQsqaUBKTNV-1" source="cUeOkRCtns4vJU1SYD9Y-11" target="cUeOkRCtns4vJU1SYD9Y-15" edge="1">
          <mxGeometry relative="1" as="geometry" />
        </mxCell>
        <mxCell id="cUeOkRCtns4vJU1SYD9Y-11" value="取保程序" style="rounded=0;whiteSpace=wrap;html=1;fillColor=#60a917;fontColor=#ffffff;strokeColor=#2D7600;" parent="WIyWlLk6GJQsqaUBKTNV-1" vertex="1">
          <mxGeometry x="123" y="1428" width="90" height="30" as="geometry" />
        </mxCell>
        <mxCell id="cUeOkRCtns4vJU1SYD9Y-12" value="" style="edgeStyle=orthogonalEdgeStyle;rounded=0;orthogonalLoop=1;jettySize=auto;html=1;" parent="WIyWlLk6GJQsqaUBKTNV-1" source="cUeOkRCtns4vJU1SYD9Y-13" target="cUeOkRCtns4vJU1SYD9Y-19" edge="1">
          <mxGeometry relative="1" as="geometry" />
        </mxCell>
        <mxCell id="cUeOkRCtns4vJU1SYD9Y-13" value="取保义务和时间12" style="rounded=0;whiteSpace=wrap;html=1;fillColor=#fff2cc;strokeColor=#d6b656;" parent="WIyWlLk6GJQsqaUBKTNV-1" vertex="1">
          <mxGeometry x="260" y="1428" width="100" height="30" as="geometry" />
        </mxCell>
        <mxCell id="cUeOkRCtns4vJU1SYD9Y-14" value="钱或人" style="rounded=0;whiteSpace=wrap;html=1;fillColor=#f8cecc;strokeColor=#b85450;" parent="WIyWlLk6GJQsqaUBKTNV-1" vertex="1">
          <mxGeometry x="123" y="1540" width="90" height="30" as="geometry" />
        </mxCell>
        <mxCell id="cUeOkRCtns4vJU1SYD9Y-15" value="公安" style="rounded=0;whiteSpace=wrap;html=1;fillColor=#f8cecc;strokeColor=#b85450;" parent="WIyWlLk6GJQsqaUBKTNV-1" vertex="1">
          <mxGeometry x="123" y="1320" width="90" height="30" as="geometry" />
        </mxCell>
        <mxCell id="cUeOkRCtns4vJU1SYD9Y-16" style="edgeStyle=orthogonalEdgeStyle;rounded=0;orthogonalLoop=1;jettySize=auto;html=1;entryX=0;entryY=0.5;entryDx=0;entryDy=0;exitX=1;exitY=0.5;exitDx=0;exitDy=0;" parent="WIyWlLk6GJQsqaUBKTNV-1" source="cUeOkRCtns4vJU1SYD9Y-17" target="cUeOkRCtns4vJU1SYD9Y-11" edge="1">
          <mxGeometry relative="1" as="geometry">
            <mxPoint x="30" y="1458" as="sourcePoint" />
            <mxPoint x="123" y="1462" as="targetPoint" />
          </mxGeometry>
        </mxCell>
        <mxCell id="cUeOkRCtns4vJU1SYD9Y-17" value="公检法决定，公安执行" style="rounded=0;whiteSpace=wrap;html=1;fillColor=#fff2cc;strokeColor=#d6b656;" parent="WIyWlLk6GJQsqaUBKTNV-1" vertex="1">
          <mxGeometry x="-80" y="1428" width="110" height="30" as="geometry" />
        </mxCell>
        <mxCell id="d6kLhyrfIzxVU1T9Hdz8-0" value="" style="edgeStyle=orthogonalEdgeStyle;rounded=0;orthogonalLoop=1;jettySize=auto;html=1;" edge="1" parent="WIyWlLk6GJQsqaUBKTNV-1" source="cUeOkRCtns4vJU1SYD9Y-18" target="cUeOkRCtns4vJU1SYD9Y-7">
          <mxGeometry relative="1" as="geometry" />
        </mxCell>
        <mxCell id="cUeOkRCtns4vJU1SYD9Y-18" value="管制拘役附加刑， 有期病孕无危险，期限届满未办结" style="rounded=0;whiteSpace=wrap;html=1;fillColor=#f8cecc;strokeColor=#b85450;" parent="WIyWlLk6GJQsqaUBKTNV-1" vertex="1">
          <mxGeometry x="-285" y="1530" width="120" height="38" as="geometry" />
        </mxCell>
        <mxCell id="cUeOkRCtns4vJU1SYD9Y-19" value="离变传扰灭（一般以见被害人）" style="rounded=0;whiteSpace=wrap;html=1;fillColor=#f8cecc;strokeColor=#b85450;" parent="WIyWlLk6GJQsqaUBKTNV-1" vertex="1">
          <mxGeometry x="260" y="1318" width="100" height="30" as="geometry" />
        </mxCell>
      </root>
    </mxGraphModel>
  </diagram>
</mxfile>
